<?xml version="1.0" encoding="utf-8"?>
<!-- Generator: Adobe Illustrator 26.0.3, SVG Export Plug-In . SVG Version: 6.00 Build 0)  -->
<svg version="1.1" id="Layer_1" xmlns="http://www.w3.org/2000/svg" xmlns:xlink="http://www.w3.org/1999/xlink" x="0px" y="0px"
	 viewBox="0 0 382.9 131.8" style="enable-background:new 0 0 382.9 131.8;" xml:space="preserve">
<style type="text/css">
	.st0{fill:url(#SVGID_1_);}
	.st1{fill:url(#SVGID_00000173881757350747509140000010498029540424188829_);}
	.st2{fill:url(#SVGID_00000035505317915137157690000005319000385163435663_);}
	.st3{fill:url(#SVGID_00000073718753868654957960000014241203223073426095_);}
	.st4{fill:url(#SVGID_00000078024904404480647540000008903772445961104768_);}
	.st5{fill:url(#SVGID_00000082344643629141361220000018350481254365358497_);}
	.st6{fill:url(#SVGID_00000127739789936693477600000014001978475398870954_);}
	.st7{fill:url(#SVGID_00000153675480484206396090000001998903804951010196_);}
	.st8{fill:url(#SVGID_00000152248979018357679930000004004664727911088000_);}
	.st9{fill:url(#SVGID_00000171716316563732714670000004353665238489910434_);}
	.st10{fill:url(#SVGID_00000022524341847418670710000009572167910911779726_);}
	.st11{fill:url(#SVGID_00000071556091647006916880000011740569526260416955_);}
	.st12{fill:url(#SVGID_00000140732760435236959540000007859743485747125693_);}
	.st13{fill:url(#SVGID_00000059312391508114699780000010372348907913873302_);}
	.st14{fill:url(#SVGID_00000029022013274803376300000006004015982073898912_);}
	.st15{fill:url(#SVGID_00000119114682027736892680000004456039732534924422_);}
	.st16{fill:url(#SVGID_00000073723434050821945150000013803370632870014110_);}
	.st17{fill:#FFFFFF;}
</style>
<linearGradient id="SVGID_1_" gradientUnits="userSpaceOnUse" x1="265.3276" y1="65.9034" x2="382.9328" y2="65.9034">
	<stop  offset="0" style="stop-color:#6DCEEA"/>
	<stop  offset="1" style="stop-color:#22AAE2"/>
</linearGradient>
<path class="st0" d="M375.9,27.8L375.9,27.8L331.2,1.9c-4.4-2.5-9.8-2.5-14.2,0l-44.6,25.9c-3.5,2.1-6,5.5-6.8,9.5
	c-0.2,1-0.3,1.9-0.3,2.9c0.2,4.9,2.9,9.4,7.1,11.9l25.7,14.9c3.5,2.1,6.4,5.2,8.1,8.9l13,28.1c1.2,2.7,4.4,3.9,7.1,2.7
	c1.2-0.6,2.1-1.5,2.7-2.7l12.6-27.8c1.7-3.8,4.5-6.9,8.2-9l26-15.1c0.4-0.2,0.8-0.5,1.1-0.7v40.4c0,2.9-1.6,5.7-4.1,7.1l-44.6,25.8
	c-2.5,1.5-5.7,1.5-8.2,0l-44.6-25.8c-2.5-1.5-4.1-4.2-4.1-7.1V65.9c0-1.6-1.3-3-2.9-3h-0.1c-1.7,0-3,1.3-3,3l0,0v25.8
	c0,5.1,2.7,9.8,7.1,12.3l44.6,25.8c4.4,2.5,9.8,2.5,14.2,0l44.6-25.8c4.4-2.6,7.1-7.2,7.1-12.3V39.7
	C382.8,34.7,380.1,30.2,375.9,27.8z M377,40.1c-0.1,2.8-1.7,5.4-4.1,6.8l-26,15.1c-4.7,2.7-8.4,6.8-10.6,11.7L324,100.1l-12.4-26.8
	c-2.2-4.9-5.9-8.9-10.6-11.6l-25.7-14.9c-3.8-2.1-5.3-6.9-3.1-10.8c0.7-1.3,1.8-2.4,3.1-3.1l44.7-25.9c2.5-1.5,5.7-1.5,8.2,0
	l44.6,25.8C375.4,34.4,377,37.1,377,40.1L377,40.1z"/>
<g>
	<g>
		
			<linearGradient id="SVGID_00000108270785545745948580000007596601272098678181_" gradientUnits="userSpaceOnUse" x1="235.6729" y1="75.8863" x2="1.2402" y2="75.8863">
			<stop  offset="0" style="stop-color:#21438F"/>
			<stop  offset="1" style="stop-color:#4164A5"/>
		</linearGradient>
		<path style="fill:url(#SVGID_00000108270785545745948580000007596601272098678181_);" d="M134.6,72.8c-0.9,0-1.6,0.3-2.2,0.9
			c-0.6,0.6-0.9,1.3-0.9,2.2c0,0.9,0.3,1.6,0.9,2.2c0.6,0.6,1.3,0.8,2.2,0.8c0.9,0,1.6-0.3,2.2-0.9c0.6-0.6,0.9-1.3,0.9-2.2
			c0-0.9-0.3-1.6-0.9-2.2C136.2,73.1,135.5,72.8,134.6,72.8z"/>
		
			<linearGradient id="SVGID_00000057114022787096797350000008284737659977739951_" gradientUnits="userSpaceOnUse" x1="235.6729" y1="75.9035" x2="1.2402" y2="75.9035">
			<stop  offset="0" style="stop-color:#21438F"/>
			<stop  offset="1" style="stop-color:#4164A5"/>
		</linearGradient>
		<path style="fill:url(#SVGID_00000057114022787096797350000008284737659977739951_);" d="M125,72.9c-0.9,0-1.6,0.3-2.2,0.8
			c-0.6,0.6-0.9,1.3-0.9,2.2c0,0.9,0.3,1.6,0.9,2.2c0.6,0.5,1.3,0.8,2.2,0.8c0.9,0,1.6-0.3,2.2-0.8c0.6-0.6,0.9-1.3,0.9-2.2
			c0-0.9-0.3-1.6-0.9-2.2C126.6,73.2,125.9,72.9,125,72.9z"/>
		
			<linearGradient id="SVGID_00000182524338021853563260000013621897364687576230_" gradientUnits="userSpaceOnUse" x1="235.6729" y1="75.8863" x2="1.2402" y2="75.8863">
			<stop  offset="0" style="stop-color:#21438F"/>
			<stop  offset="1" style="stop-color:#4164A5"/>
		</linearGradient>
		<path style="fill:url(#SVGID_00000182524338021853563260000013621897364687576230_);" d="M226.8,72.8c-0.9,0-1.6,0.3-2.2,0.9
			c-0.6,0.6-0.9,1.3-0.9,2.2c0,0.9,0.3,1.6,0.9,2.2c0.6,0.6,1.3,0.8,2.2,0.8c0.9,0,1.6-0.3,2.2-0.9c0.6-0.6,0.9-1.3,0.9-2.2
			c0-0.9-0.3-1.6-0.9-2.2C228.4,73.1,227.6,72.8,226.8,72.8z"/>
		
			<linearGradient id="SVGID_00000041976560560222345080000012130999012740077464_" gradientUnits="userSpaceOnUse" x1="235.6729" y1="58.3788" x2="1.2402" y2="58.3788">
			<stop  offset="0" style="stop-color:#21438F"/>
			<stop  offset="1" style="stop-color:#4164A5"/>
		</linearGradient>
		<path style="fill:url(#SVGID_00000041976560560222345080000012130999012740077464_);" d="M227.3,38v13.5c0,1.7-0.3,3.1-0.8,4.3
			c-0.5,1.2-1.2,2.2-2,3c-0.9,0.8-1.8,1.4-2.9,1.8c-2.3,0.8-5,0.8-7.2,0c-1.1-0.4-2.1-1-2.9-1.8c-0.8-0.8-1.5-1.8-2-3
			c-0.5-1.2-0.8-2.7-0.8-4.3l0-13.6h-6.1v13.6c0,1.7-0.3,3.1-0.8,4.3c-0.5,1.2-1.2,2.2-2,3c-0.9,0.8-1.8,1.4-2.9,1.8
			c-2.3,0.8-5,0.8-7.2,0c-1.1-0.4-2.1-1-2.9-1.8c-0.8-0.8-1.5-1.8-2-3c-0.5-1.2-0.8-2.7-0.8-4.3l0.1-13.6h-6.1v13.6
			c0,1.7-0.3,3.1-0.8,4.3c-0.5,1.2-1.2,2.2-2,3c-0.9,0.8-1.8,1.4-2.9,1.8c-2.3,0.8-5,0.8-7.2,0c-1.1-0.4-2.1-1-2.9-1.8
			c-0.8-0.8-1.5-1.8-2-3c-0.5-1.2-0.8-2.7-0.8-4.3l0.1-13.6h-6.1v13.6c0,1.7-0.3,3.1-0.8,4.3c-0.5,1.2-1.2,2.2-2,3
			c-0.9,0.8-1.8,1.4-2.9,1.8c-1,0.4-2.2,0.6-3.3,0.6c-0.1,0-0.2,0-0.3,0c-1.3,0-2.5-0.2-3.6-0.6c-1.1-0.4-2.1-1-2.9-1.8
			c-0.8-0.8-1.5-1.8-2-3c-0.5-1.2-0.8-2.7-0.8-4.3l0.1-13.5h-6.1v13.5c0,1.7-0.3,3.1-0.8,4.3c-0.5,1.2-1.2,2.2-2,3
			c-0.9,0.8-1.8,1.4-2.9,1.8c-1.1,0.4-2.4,0.6-3.6,0.6H26.1c-1.3,0-2.5-0.2-3.6-0.6c-1.1-0.4-2.1-1-2.9-1.8c-0.8-0.8-1.5-1.8-2-3
			c-0.5-1.2-0.8-2.7-0.8-4.3V37.8h-6.1l0,25.4c0,2.9-0.8,5.2-2.5,7.1c-1.7,1.8-3.9,2.7-6.8,2.7H0.5v5.9h0.9c3.1,0,5.8-0.7,8.1-2
			c2.3-1.4,4.1-3.2,5.4-5.6c1.1-2.1,1.8-4.4,1.9-7c1.1,0.8,2.3,1.4,3.6,1.9c1.8,0.6,3.8,1,5.8,1H119c2,0,3.9-0.3,5.7-1
			c1.9-0.6,3.5-1.6,4.9-3c0.6-0.6,1.2-1.2,1.7-1.9c0.5,0.7,1.1,1.3,1.7,1.9c1.4,1.3,3.1,2.3,4.9,3c3.6,1.3,7.8,1.3,11.5,0
			c1.8-0.6,3.5-1.6,4.9-2.9c0.6-0.6,1.2-1.2,1.7-1.9c0.5,0.7,1.1,1.3,1.7,1.9c1.4,1.3,3.1,2.3,4.9,2.9c3.7,1.3,7.8,1.3,11.5,0
			c1.8-0.6,3.5-1.6,5-2.9c0.6-0.6,1.2-1.2,1.7-1.9c0.5,0.7,1.1,1.3,1.7,1.9c1.4,1.3,3.1,2.3,4.9,2.9c3.7,1.3,7.8,1.3,11.5,0
			c1.9-0.6,3.5-1.6,5-2.9c0.6-0.6,1.2-1.2,1.7-1.9c0.5,0.7,1.1,1.3,1.7,1.9c1.4,1.3,3.1,2.3,4.9,2.9c3.6,1.3,7.8,1.3,11.5,0
			c1.9-0.6,3.5-1.6,4.9-3c1.4-1.3,2.6-3,3.5-4.9c0.8-1.9,1.3-4.2,1.3-6.8l0.1-13.5H227.3z"/>
		
			<linearGradient id="SVGID_00000090975210336537655620000001274034565647624375_" gradientUnits="userSpaceOnUse" x1="235.6729" y1="75.9035" x2="1.2402" y2="75.9035">
			<stop  offset="0" style="stop-color:#21438F"/>
			<stop  offset="1" style="stop-color:#4164A5"/>
		</linearGradient>
		<path style="fill:url(#SVGID_00000090975210336537655620000001274034565647624375_);" d="M217.1,72.9c-0.9,0-1.6,0.3-2.2,0.8
			c-0.6,0.6-0.9,1.3-0.9,2.2c0,0.9,0.3,1.6,0.9,2.2c0.6,0.5,1.3,0.8,2.2,0.8c0.9,0,1.6-0.3,2.2-0.8c0.6-0.6,0.9-1.3,0.9-2.2
			c0-0.9-0.3-1.6-0.9-2.2C218.7,73.2,218,72.9,217.1,72.9z"/>
	</g>
	<g>
		
			<linearGradient id="SVGID_00000171707115221467075890000012148983451217962676_" gradientUnits="userSpaceOnUse" x1="235.8603" y1="103.0695" x2="2.5593" y2="103.0695">
			<stop  offset="0" style="stop-color:#21438F"/>
			<stop  offset="1" style="stop-color:#4164A5"/>
		</linearGradient>
		<path style="fill:url(#SVGID_00000171707115221467075890000012148983451217962676_);" d="M13.2,106.2v7.5H8.2v-7.6L0,92.4h5.2
			l5.7,9.5l5.7-9.5h4.8L13.2,106.2z"/>
		
			<linearGradient id="SVGID_00000065753468184424377400000002200368309614356415_" gradientUnits="userSpaceOnUse" x1="235.8603" y1="103.0695" x2="2.5593" y2="103.0695">
			<stop  offset="0" style="stop-color:#21438F"/>
			<stop  offset="1" style="stop-color:#4164A5"/>
		</linearGradient>
		<path style="fill:url(#SVGID_00000065753468184424377400000002200368309614356415_);" d="M40.9,109.1H31l-1.9,4.6h-5l9.5-21.3h4.9
			l9.5,21.3h-5.2L40.9,109.1z M39.3,105.4l-3.4-8.1l-3.4,8.1H39.3z"/>
		
			<linearGradient id="SVGID_00000166648058554073937010000006781188268811697805_" gradientUnits="userSpaceOnUse" x1="235.8603" y1="103.07" x2="2.5593" y2="103.07">
			<stop  offset="0" style="stop-color:#21438F"/>
			<stop  offset="1" style="stop-color:#4164A5"/>
		</linearGradient>
		<path style="fill:url(#SVGID_00000166648058554073937010000006781188268811697805_);" d="M53.1,111.6l1.7-3.7
			c1.8,1.3,4.5,2.2,7,2.2c2.9,0,4.1-1,4.1-2.3c0-4-12.4-1.2-12.4-9.1c0-3.6,2.9-6.6,9-6.6c2.7,0,5.4,0.6,7.4,1.9l-1.5,3.7
			c-2-1.1-4-1.7-5.9-1.7c-2.9,0-4,1.1-4,2.4c0,3.9,12.4,1.2,12.4,9c0,3.6-2.9,6.6-9,6.6C58.4,114.1,55,113.1,53.1,111.6z"/>
		
			<linearGradient id="SVGID_00000169555089034572958110000005283283126139883911_" gradientUnits="userSpaceOnUse" x1="235.8603" y1="103.07" x2="2.5593" y2="103.07">
			<stop  offset="0" style="stop-color:#21438F"/>
			<stop  offset="1" style="stop-color:#4164A5"/>
		</linearGradient>
		<path style="fill:url(#SVGID_00000169555089034572958110000005283283126139883911_);" d="M77.2,111.6l1.7-3.7
			c1.8,1.3,4.5,2.2,7,2.2c2.9,0,4.1-1,4.1-2.3c0-4-12.4-1.2-12.4-9.1c0-3.6,2.9-6.6,9-6.6c2.7,0,5.4,0.6,7.4,1.9l-1.5,3.7
			c-2-1.1-4-1.7-5.9-1.7c-2.9,0-4,1.1-4,2.4c0,3.9,12.4,1.2,12.4,9c0,3.6-2.9,6.6-9,6.6C82.5,114.1,79.1,113.1,77.2,111.6z"/>
		
			<linearGradient id="SVGID_00000175291006241989574240000009576166933093340846_" gradientUnits="userSpaceOnUse" x1="235.8603" y1="103.0695" x2="2.5593" y2="103.0695">
			<stop  offset="0" style="stop-color:#21438F"/>
			<stop  offset="1" style="stop-color:#4164A5"/>
		</linearGradient>
		<path style="fill:url(#SVGID_00000175291006241989574240000009576166933093340846_);" d="M102.9,92.4h4.9v21.3h-4.9V92.4z"/>
		
			<linearGradient id="SVGID_00000165194409465202987060000009989679339785833602_" gradientUnits="userSpaceOnUse" x1="235.8603" y1="103.0695" x2="2.5593" y2="103.0695">
			<stop  offset="0" style="stop-color:#21438F"/>
			<stop  offset="1" style="stop-color:#4164A5"/>
		</linearGradient>
		<path style="fill:url(#SVGID_00000165194409465202987060000009989679339785833602_);" d="M131.1,113.7l-4.1-5.9h-0.2h-4.3v5.9
			h-4.9V92.4h9.2c5.7,0,9.2,2.9,9.2,7.7c0,3.2-1.6,5.5-4.4,6.7l4.8,6.8H131.1z M126.5,96.4h-4v7.4h4c3,0,4.5-1.4,4.5-3.7
			C131,97.8,129.5,96.4,126.5,96.4z"/>
		
			<linearGradient id="SVGID_00000097490468371466917140000013785185589035802034_" gradientUnits="userSpaceOnUse" x1="235.8603" y1="103.0695" x2="2.5593" y2="103.0695">
			<stop  offset="0" style="stop-color:#21438F"/>
			<stop  offset="1" style="stop-color:#4164A5"/>
		</linearGradient>
		<path style="fill:url(#SVGID_00000097490468371466917140000013785185589035802034_);" d="M176.3,100.2c0,4.7-3.6,7.7-9.2,7.7h-4.3
			v5.9h-4.9V92.4h9.2C172.8,92.4,176.3,95.4,176.3,100.2z M171.3,100.2c0-2.3-1.5-3.7-4.5-3.7h-4v7.4h4
			C169.8,103.8,171.3,102.5,171.3,100.2z"/>
		
			<linearGradient id="SVGID_00000152261020564131093710000016000699322348072609_" gradientUnits="userSpaceOnUse" x1="235.8603" y1="103.0695" x2="2.5593" y2="103.0695">
			<stop  offset="0" style="stop-color:#21438F"/>
			<stop  offset="1" style="stop-color:#4164A5"/>
		</linearGradient>
		<path style="fill:url(#SVGID_00000152261020564131093710000016000699322348072609_);" d="M198,113.7l-4.1-5.9h-0.2h-4.3v5.9h-4.9
			V92.4h9.2c5.7,0,9.2,2.9,9.2,7.7c0,3.2-1.6,5.5-4.4,6.7l4.8,6.8H198z M193.4,96.4h-4v7.4h4c3,0,4.5-1.4,4.5-3.7
			C197.9,97.8,196.4,96.4,193.4,96.4z"/>
		
			<linearGradient id="SVGID_00000004528653397447683090000009661533525434685362_" gradientUnits="userSpaceOnUse" x1="235.8603" y1="103.07" x2="2.5593" y2="103.07">
			<stop  offset="0" style="stop-color:#21438F"/>
			<stop  offset="1" style="stop-color:#4164A5"/>
		</linearGradient>
		<path style="fill:url(#SVGID_00000004528653397447683090000009661533525434685362_);" d="M210.2,103.1c0-6.3,4.9-11,11.6-11
			c6.7,0,11.6,4.6,11.6,11c0,6.4-5,11-11.6,11C215.1,114.1,210.2,109.4,210.2,103.1z M228.4,103.1c0-4-2.9-6.8-6.7-6.8
			c-3.8,0-6.7,2.8-6.7,6.8s2.9,6.8,6.7,6.8C225.6,109.9,228.4,107.1,228.4,103.1z"/>
	</g>
	<g>
		
			<linearGradient id="SVGID_00000134938695165895751510000000958585071875940011_" gradientUnits="userSpaceOnUse" x1="112.4915" y1="26.0192" x2="32.1425" y2="26.0192">
			<stop  offset="0" style="stop-color:#22AAE2"/>
			<stop  offset="1" style="stop-color:#6DCEEA"/>
		</linearGradient>
		<path style="fill:url(#SVGID_00000134938695165895751510000000958585071875940011_);" d="M105.1,8H42.7c-4.5,0-8.4,3.6-8.8,8.1
			L32.2,36c-0.4,4.5,2.9,8.1,7.4,8.1h62.4c4.5,0,8.4-3.6,8.8-8.1l1.7-19.9C112.9,11.6,109.6,8,105.1,8z"/>
		
			<linearGradient id="SVGID_00000062183766925540748380000002639398277172975235_" gradientUnits="userSpaceOnUse" x1="112.9782" y1="48.0668" x2="22.4114" y2="48.0668">
			<stop  offset="0" style="stop-color:#22AAE2"/>
			<stop  offset="1" style="stop-color:#6DCEEA"/>
		</linearGradient>
		<polygon style="fill:url(#SVGID_00000062183766925540748380000002639398277172975235_);" points="93.4,52.1 83.9,44 98.1,44 		"/>
		<g>
			<path class="st17" d="M61,17.4c-0.7-0.7-1.5-1.3-2.6-1.7c-1-0.4-2.2-0.6-3.6-0.6c-1.3,0-2.6,0.2-3.8,0.6
				c-1.2,0.4-2.2,0.9-3.2,1.7c-0.9,0.7-1.7,1.6-2.3,2.7c-0.6,1.1-1.1,2.3-1.3,3.6c-0.2,1.4-0.2,2.6,0,3.6c0.3,1.1,0.7,2,1.4,2.7
				c0.7,0.7,1.5,1.3,2.6,1.7c1,0.4,2.2,0.6,3.6,0.6c1.6,0,3.2-0.3,4.6-0.9c-0.2,0.9-0.6,1.7-1.2,2.2c-0.6,0.6-1.5,0.9-2.4,0.9
				l-0.7,4c1.2,0,2.4-0.2,3.4-0.6c1-0.4,1.9-0.9,2.7-1.5c0.8-0.7,1.4-1.4,1.9-2.4c0.5-0.9,0.8-1.9,1-3l1.3-7.3
				c0.2-1.4,0.2-2.6,0-3.6C62.1,19.1,61.7,18.2,61,17.4z M57.1,25.6c-0.3,0.6-0.7,1-1.1,1.5c-0.4,0.4-1,0.7-1.6,0.9
				c-0.6,0.2-1.2,0.3-1.9,0.3c-0.6,0-1.2-0.1-1.7-0.3s-0.9-0.5-1.2-0.9c-0.3-0.4-0.5-0.9-0.7-1.5c-0.1-0.6-0.1-1.2,0-1.9
				c0.1-0.7,0.3-1.3,0.7-1.8c0.3-0.6,0.7-1,1.2-1.5c0.5-0.4,1-0.7,1.6-0.9c0.6-0.2,1.2-0.3,1.9-0.3c0.7,0,1.2,0.1,1.8,0.3
				c0.5,0.2,0.9,0.5,1.2,0.9c0.3,0.4,0.5,0.9,0.6,1.4s0.1,1.2,0,1.9C57.7,24.4,57.5,25,57.1,25.6z"/>
			<path class="st17" d="M101.2,16.8h-4.5l-1.4,7.9c-0.2,1.3-0.7,2.2-1.3,2.7s-1.5,0.9-2.4,0.9l0,0H74.5c-1,0-1.7-0.3-2.1-0.9
				c-0.4-0.6-0.6-1.4-0.4-2.6l1.4-8.1h-4.6l-2.5,14.3c-0.2,1.1-0.6,2-1.3,2.5c-0.6,0.6-1.4,0.9-2.4,0.9L62,38.5
				c1.2,0,2.4-0.2,3.4-0.6c1-0.4,1.9-0.9,2.7-1.5c0.8-0.7,1.4-1.4,1.9-2.3c0.4-0.7,0.7-1.5,0.9-2.3c0.8,0.3,1.8,0.5,3,0.5h0h17.2
				c0.1,0,0.3,0,0.4,0c2.2-0.1,4-0.7,5.5-1.9c1.6-1.3,2.6-3.2,3-5.6L101.2,16.8z"/>
			<path class="st17" d="M97.3,35.1c-0.4-0.3-0.9-0.5-1.5-0.5c-0.6,0-1.1,0.2-1.6,0.5c-0.5,0.4-0.8,0.8-0.9,1.5
				c-0.1,0.6,0,1.1,0.4,1.5c0.4,0.3,0.9,0.5,1.5,0.5c0.6,0,1.1-0.2,1.6-0.5c0.5-0.4,0.9-0.9,1-1.5C97.9,35.9,97.7,35.4,97.3,35.1z"
				/>
		</g>
	</g>
</g>
</svg>
